PathFileType	4	(X/Y/Z)	/Users/niels/Desktop/University/Third Semester/Perception and Action/Exam/Gymnastics Motion Tracking/Code for Gym Tracking/Analyzed Data/Webcam_Backflip/id2_2_baseline_Sports2D/id2_2_baseline_Sports2D_px_person00.trc
DataRate	CameraRate	NumFrames	NumMarkers	Units	OrigDataRate	OrigDataStartFrame	OrigNumFrames
29.87551867219917	29.87551867219917	10	22	m	29.87551867219917	0	241
Frame#	Time	Hip			RHip			RKnee			RAnkle			RBigToe			RSmallToe			RHeel			LHip			LKnee			LAnkle			LBigToe			LSmallToe			LHeel			Neck			Head			Nose			RShoulder			RElbow			RWrist			LShoulder			LElbow			LWrist		
		X1	Y1	Z1	X2	Y2	Z2	X3	Y3	Z3	X4	Y4	Z4	X5	Y5	Z5	X6	Y6	Z6	X7	Y7	Z7	X8	Y8	Z8	X9	Y9	Z9	X10	Y10	Z10	X11	Y11	Z11	X12	Y12	Z12	X13	Y13	Z13	X14	Y14	Z14	X15	Y15	Z15	X16	Y16	Z16	X17	Y17	Z17	X18	Y18	Z18	X19	Y19	Z19	X20	Y20	Z20	X21	Y21	Z21	X22	Y22	Z22
0	0.0	0.9373137035807707	-0.5683429028142779	0.0	0.937319990918503	-0.5662235386337666	0.0	0.9478602506256117	-0.682243237882636	0.0	0.92465224380534	-0.7982481005873139	0.0	0.9584118414678406	-0.8151140515882397	0.0	0.9457577875455847	-0.8214447967389867	0.0	0.9141071306702827	-0.8172330574315397	0.0	0.9394115562800108	-0.5662221848870722	0.0	0.9499709360534035	-0.6801303047899842	0.0	0.9309898115182502	-0.7898028410579071	0.0	0.9731829283107967	-0.8045714089073285	0.0	0.971085385732149	-0.8024621111921744	0.0	0.9162150881373937	-0.8066774484520429	0.0	0.9415337270993206	-0.40590402276547066	0.0	0.9731891181311477	-0.33207993624307636	0.0	0.971053830889737	-0.3742772589234964	0.0	0.933099523801806	-0.4164585664793293	0.0	0.9415198847573171	-0.3320618653343642	0.0	0.9541884519318846	-0.25823418601627246	0.0	0.9351980854878591	-0.4206786481033031	0.0	0.9436397038719344	-0.3404834669966001	0.0	0.9520899229341404	-0.2793441841414585	0.0
1	0.03347222222222222	0.9388378285910867	-0.5650624164665272	0.0	0.9386418587931983	-0.5634940034317422	0.0	0.9480117289254691	-0.6788304378647383	0.0	0.9243403786731673	-0.7949930570950612	0.0	0.9585043734736978	-0.8126108124242539	0.0	0.9456341325006176	-0.8186984373929796	0.0	0.9139688134495735	-0.8137735745387041	0.0	0.9413496448199022	-0.5628974889068267	0.0	0.9506213397882131	-0.6769237156361508	0.0	0.9322746871835494	-0.7865599492606178	0.0	0.9731152794308742	-0.802164646493124	0.0	0.9708843085485116	-0.7991028593791022	0.0	0.9178875313522522	-0.8026885497609085	0.0	0.9421445842257835	-0.40414534299070953	0.0	0.9735591133210428	-0.32963556917310605	0.0	0.9715174096258766	-0.3724766074224449	0.0	0.9339296946252821	-0.41350822005427385	0.0	0.9421397772885466	-0.329526880122871	0.0	0.9552993489736494	-0.2556200273179493	0.0	0.9356750666726941	-0.41727435019210113	0.0	0.9447366596371175	-0.33867473663753633	0.0	0.9540728793917003	-0.27721042801897916	0.0
2	0.06694444444444445	0.9402737846516287	-0.5620402663536469	0.0	0.9400046459565	-0.5609172082111765	0.0	0.948123039047078	-0.6755444300618653	0.0	0.9242305444734306	-0.7919573919954821	0.0	0.9587009387471754	-0.8102082828404251	0.0	0.9456302212362754	-0.8161461738556841	0.0	0.9139138001988817	-0.8105164208388063	0.0	0.9430707476347688	-0.559860338065671	0.0	0.9512243801764525	-0.6738228268600089	0.0	0.9333479763320031	-0.7835310683815775	0.0	0.9730904000528815	-0.7999375075287637	0.0	0.9707239465546519	-0.7960359872196392	0.0	0.9192933729475896	-0.7989752110426332	0.0	0.9427604903997991	-0.40235244339788623	0.0	0.9739984384724729	-0.327258653387605	0.0	0.971917094088336	-0.3705801667872138	0.0	0.9346572180679522	-0.4107570542345308	0.0	0.94275430771879	-0.32694461306727624	0.0	0.9563610237249844	-0.2530662046361741	0.0	0.9362548690281172	-0.41409601710369837	0.0	0.945897322782789	-0.3366298049386415	0.0	0.9559051942961333	-0.2748134072283258	0.0
3	0.10041666666666667	0.9416049336669076	-0.5595129520850523	0.0	0.941424111399354	-0.5586579819584685	0.0	0.9482077027335444	-0.6725615667251292	0.0	0.924444516591913	-0.7893365521975648	0.0	0.9590755279526351	-0.8080847153292718	0.0	0.9458550284383035	-0.8139967195103968	0.0	0.9140418078473878	-0.8076633627263382	0.0	0.9444657604233316	-0.5573862198411142	0.0	0.9517232747330104	-0.6709764691132328	0.0	0.9341263181023308	-0.7809128949883657	0.0	0.9731252766271813	-0.7981278638980447	0.0	0.970612430809326	-0.7935393105314683	0.0	0.9202686774278472	-0.7957968367049917	0.0	0.9433765566889197	-0.4005972243021385	0.0	0.9745528925994199	-0.325038861215549	0.0	0.9721992793068293	-0.3686175239793926	0.0	0.9352625418692163	-0.40833655255408996	0.0	0.9433594890617257	-0.3244216655043665	0.0	0.9573177574881578	-0.25074467976245524	0.0	0.9369363217300122	-0.4113532698401502	0.0	0.9470844435592362	-0.33448022936243194	0.0	0.9574171428378527	-0.2722812693125472	0.0
4	0.1338888888888889	0.9428628111748945	-0.5576234649995798	0.0	0.9429047324356614	-0.5568854116399657	0.0	0.9483240988368183	-0.6700873859199951	0.0	0.9250295969386285	-0.7872855396368976	0.0	0.9596681465810175	-0.8064787506161205	0.0	0.946370993343552	-0.8124329090029034	0.0	0.9144521764656596	-0.8054113574304428	0.0	0.9455315688303082	-0.5556654601913714	0.0	0.952051818532849	-0.6685931556716185	0.0	0.9346793849260279	-0.7788677423251757	0.0	0.9731735778506139	-0.7969826525214947	0.0	0.9705654593382241	-0.7918573827525753	0.0	0.9208182734176166	-0.7933503352578897	0.0	0.9439815976619474	-0.3990264432643954	0.0	0.9752014150142715	-0.3230736672099834	0.0	0.9723536696950358	-0.3667311941145485	0.0	0.935772012687555	-0.4063328507275493	0.0	0.9439469667773103	-0.3222287289980984	0.0	0.9581002472901676	-0.24891381178988856	0.0	0.9376473824483467	-0.40923670638345444	0.0	0.9482305190676037	-0.33265524809042224	0.0	0.9585015534468305	-0.2701187201081482	0.0
5	0.16736111111111113	0.9440522839469057	-0.5563343601945955	0.0	0.9444211837166627	-0.5557059238880838	0.0	0.9485322213713874	-0.6682653921393454	0.0	0.9259880213494549	-0.7858970292448537	0.0	0.9604836322685257	-0.8055940754490252	0.0	0.947172024071164	-0.8115714366711313	0.0	0.9152152459160519	-0.8038970829593618	0.0	0.9463108861039569	-0.5547029212901111	0.0	0.9521676108681654	-0.6668720484512631	0.0	0.935134168208578	-0.777501269895235	0.0	0.9731443861316659	-0.7966305152905101	0.0	0.9705765520989743	-0.7911494548443178	0.0	0.9211078410652589	-0.7917495636980857	0.0	0.9445665680108263	-0.3977908908468527	0.0	0.9758271933942761	-0.3214670920849514	0.0	0.9724548083720949	-0.3650762687150513	0.0	0.9361961130327529	-0.4048149152095817	0.0	0.9445141254745691	-0.3206529644737719	0.0	0.9586242358844627	-0.2477887967128058	0.0	0.9383174648039821	-0.4078546181483846	0.0	0.9493123927862769	-0.3315608195912595	0.0	0.9591569602887535	-0.2687675906332603	0.0
6	0.20083333333333334	0.9451206985382309	-0.5554759176562433	0.0	0.9458740346084643	-0.5551085473526935	0.0	0.9488746869960705	-0.6671369670814609	0.0	0.9272245218359071	-0.7851936815056277	0.0	0.9614405645236219	-0.8055050902388502	0.0	0.9481688898861267	-0.8114385142848299	0.0	0.9162973956468086	-0.8031530630225698	0.0	0.9468690505376431	-0.5543324928011222	0.0	0.9520974190289809	-0.6658954125856339	0.0	0.9355487035382428	-0.7768518909367825	0.0	0.9729799105383051	-0.7970046780384665	0.0	0.9705422508279512	-0.7914111869911133	0.0	0.9213333643484414	-0.7910396456706954	0.0	0.9451174941811693	-0.3970067372105198	0.0	0.9762614955200117	-0.32033494338133256	0.0	0.9726368971541349	-0.3637649196935566	0.0	0.9365136290416769	-0.4038339638274433	0.0	0.9450595510683814	-0.3198657723885486	0.0	0.9588295628736606	-0.24743802956525135	0.0	0.938902975330108	-0.40717990152084005	0.0	0.950319966686611	-0.33139610149803544	0.0	0.9594429352390391	-0.2683129332793827	0.0
7	0.23430555555555554	0.9459796000067657	-0.5548952621462359	0.0	0.947081176657939	-0.5549646070414995	0.0	0.9493793387081172	-0.6666674752139957	0.0	0.9285148647233397	-0.7851375556109792	0.0	0.9623506315382807	-0.8061017834572788	0.0	0.9491678297820066	-0.8119398492049075	0.0	0.9174857184236553	-0.8031204074034661	0.0	0.9472858422472716	-0.5543309243797302	0.0	0.9519585330834822	-0.6655864382632417	0.0	0.9358889261481487	-0.7768924070324867	0.0	0.9727161249137506	-0.7978658214851099	0.0	0.9703190335922216	-0.7924141659557475	0.0	0.9215949301090536	-0.791173962672459	0.0	0.9456016751132549	-0.3967300460119801	0.0	0.9763552163299086	-0.319752518502716	0.0	0.9729984244983035	-0.36285897740017387	0.0	0.936684358667569	-0.403409146729008	0.0	0.9455712653377896	-0.3199061169109885	0.0	0.9587318331536048	-0.24781344209791462	0.0	0.9394057406825047	-0.4070892475078666	0.0	0.9512254290390018	-0.3321453274265197	0.0	0.9594285093899562	-0.2685812164993302	0.0
8	0.2677777777777778	0.9465476963938575	-0.554530995070511	0.0	0.9478543513112602	-0.5550773700532308	0.0	0.9500362781131182	-0.666766270523114	0.0	0.9296167211623441	-0.7856251708585423	0.0	0.9630203366714316	-0.807107246936928	0.0	0.9499370363768703	-0.8128638346408332	0.0	0.9184741713983431	-0.8036602405543577	0.0	0.947612176311278	-0.5545048125693554	0.0	0.9519093591745904	-0.6657752433179297	0.0	0.9361086727242206	-0.7775110518028742	0.0	0.9724660407310175	-0.7989078964850495	0.0	0.9698838725063466	-0.7937588963292017	0.0	0.9218996397215143	-0.7919673013448246	0.0	0.9459812657268792	-0.39695646546143964	0.0	0.9760597858327101	-0.31971214892052674	0.0	0.9735186426723121	-0.3623783713043579	0.0	0.9367009695566318	-0.4034983536020436	0.0	0.9460394521321918	-0.3206724516469306	0.0	0.9584289733827722	-0.24882806033492683	0.0	0.9398515316229609	-0.4074329982742869	0.0	0.9519875008988312	-0.3335854930318304	0.0	0.9591799765222272	-0.26930212665184355	0.0
9	0.30125	0.9468034114352356	-0.5544228642854561	0.0	0.9481395679460263	-0.5553126981876411	0.0	0.9507685054681922	-0.6673434220487234	0.0	0.9303932163119332	-0.7865154110395953	0.0	0.963380068770786	-0.8082225483404673	0.0	0.9503653310533364	-0.8139697262230826	0.0	0.919053403877154	-0.8045870061429885	0.0	0.9478268170422248	-0.5547488638316013	0.0	0.952057107589225	-0.6663500679087729	0.0	0.9362172061876262	-0.7785200138964867	0.0	0.9723610956382382	-0.7999254305672882	0.0	0.969418779726888	-0.7950933099405073	0.0	0.9222098708925773	-0.7931461810832316	0.0	0.9462349600246608	-0.3976775150094605	0.0	0.9755068741069656	-0.32018253519645395	0.0	0.9740397736509774	-0.3623844702207639	0.0	0.9366369136989836	-0.40404003527324495	0.0	0.9464475214235523	-0.3219501916511524	0.0	0.9580557979480319	-0.2503660475793559	0.0	0.9402075532649956	-0.408121632741965	0.0	0.9525475023789063	-0.335343201912225	0.0	0.958796904378185	-0.27023125659127806	0.0
